<svg xmlns="http://www.w3.org/2000/svg" viewBox="0 0 256 256" role="img" aria-labelledby="title desc">
  <title id="title">XenonDS monochrome logo mark</title>
  <desc id="desc">One-color dual display and pixel signal logo.</desc>
  <g fill="none" stroke="#F4F7FA" stroke-linecap="square" stroke-linejoin="round">
    <path d="M35 24H221Q232 24 232 35V91Q232 102 221 102H35Q24 102 24 91V35Q24 24 35 24Z" stroke-width="14"/>
    <path d="M35 154H221Q232 154 232 165V221Q232 232 221 232H35Q24 232 24 221V165Q24 154 35 154Z" stroke-width="14"/>
    <path d="M113 108V148M143 108V148" stroke-width="10"/>
    <path d="M58 50H111M58 65H147M58 80H125" stroke-width="9"/>
  </g>
  <path d="M76 208H96V188H116V174H140V188H160V208H140V194H116V208H96V218H76Z" fill="#F4F7FA"/>
</svg>
